<?xml version="1.0" standalone="no"?>
<!DOCTYPE svg PUBLIC "-//W3C//DTD SVG 20010904//EN"
 "http://www.w3.org/TR/2001/REC-SVG-20010904/DTD/svg10.dtd">
<svg version="1.0" xmlns="http://www.w3.org/2000/svg"
 width="128.000000pt" height="128.000000pt" viewBox="0 0 128.000000 128.000000"
 preserveAspectRatio="xMidYMid meet">
<metadata>
Created by potrace 1.11, written by Peter Selinger 2001-2013
</metadata>
<g transform="translate(0.000000,128.000000) scale(0.100000,-0.100000)"
fill="#000000" stroke="none">
<path d="M539 1256 c-2 -2 -33 -6 -69 -10 -75 -7 -168 -29 -217 -53 -45 -21
-79 -67 -93 -125 -18 -71 -1 -335 24 -376 4 -7 2 -12 -6 -12 -10 0 -10 -2 -1
-8 7 -5 14 -20 15 -35 1 -15 6 -27 11 -27 5 0 7 -9 4 -20 -3 -11 -1 -20 5 -20
5 0 6 -4 3 -10 -3 -5 -1 -10 6 -10 6 0 9 -8 6 -20 -3 -11 -1 -23 5 -26 8 -5
27 -46 30 -64 1 -3 8 -10 17 -17 10 -8 11 -12 4 -13 -7 0 -1 -11 13 -25 14
-14 22 -30 18 -37 -4 -6 -3 -8 3 -5 6 4 16 -7 23 -23 7 -16 16 -27 21 -24 5 3
9 -2 9 -10 0 -9 5 -16 10 -16 6 0 10 -4 10 -10 0 -5 20 -30 44 -54 24 -25 41
-47 38 -50 -3 -4 0 -6 7 -6 7 0 30 -18 52 -40 22 -22 44 -40 49 -40 6 0 10 -5
10 -11 0 -5 5 -7 10 -4 6 3 10 -2 10 -12 0 -14 2 -15 9 -5 4 8 11 13 15 13 29
-4 56 1 51 9 -3 6 -1 10 4 10 6 0 20 9 31 20 12 12 25 18 31 15 5 -4 8 -1 7 7
-2 7 2 12 9 11 7 -2 10 3 7 11 -3 9 3 17 15 21 12 3 19 11 16 16 -6 8 9 13 28
10 5 -1 6 3 3 7 -3 5 5 21 19 36 14 15 29 36 35 47 6 11 16 16 22 13 6 -4 8
-3 5 3 -4 6 4 22 17 36 13 14 21 28 18 31 -3 3 0 6 7 6 7 0 9 5 6 10 -3 6 1
13 9 16 9 3 16 15 16 25 0 10 5 19 11 19 5 0 8 4 5 9 -3 5 1 14 9 21 8 7 12
16 9 21 -3 5 0 9 6 9 6 0 8 5 5 10 -3 6 -1 10 6 10 7 0 10 3 6 6 -3 3 -1 18 5
33 5 14 11 33 13 41 2 8 11 42 19 75 9 32 16 70 16 83 0 13 3 21 8 19 4 -3 6
12 6 34 -1 21 1 39 5 39 8 0 6 165 -3 215 -12 63 -43 109 -89 133 -47 24 -102
42 -150 49 -18 2 -43 6 -57 9 -32 7 -275 15 -281 10z"/>
</g>
</svg>
